<svg width="2500" height="600" viewBox="0 0 2500 600" fill="none" xmlns="http://www.w3.org/2000/svg">
<path d="M473.261 456.684L349.903 472.6L334.98 416.398H278.275L265.84 472.6L139 460.166L237.985 128.926L376.265 121.963L473.261 456.684ZM326.027 340.303L307.125 253.763L288.721 340.303H326.027Z" fill="white"/>
<path d="M767.977 389.541C767.977 403.301 765.407 415.155 760.267 425.102C755.293 435.049 748.578 443.504 740.122 450.467C731.666 457.43 721.884 463.15 710.775 467.626C699.832 471.937 688.391 475.335 676.454 477.822C664.516 480.309 652.495 481.967 640.391 482.796C628.453 483.624 617.261 484.039 606.816 484.039C596.536 484.039 585.842 483.624 574.733 482.796C563.79 482.132 552.847 480.889 541.904 479.065C530.961 477.242 520.183 474.838 509.572 471.854C498.96 468.704 488.929 464.808 479.478 460.166L478.981 139.868C488.266 136.055 498.131 132.656 508.577 129.672C519.023 126.522 529.634 123.952 540.411 121.963C551.354 119.808 562.215 118.233 572.992 117.238C583.769 116.078 594.215 115.497 604.329 115.497C616.101 115.497 627.956 116.243 639.894 117.735C651.997 119.228 663.604 121.714 674.713 125.196C685.821 128.677 696.184 133.236 705.801 138.873C715.417 144.344 723.79 151.141 730.92 159.265C738.215 167.388 743.853 176.838 747.832 187.614C751.977 198.39 754.05 210.824 754.05 224.916C754.05 234.2 752.723 242.904 750.07 251.027C747.418 259.151 743.604 266.445 738.63 272.911C733.656 279.376 727.604 284.93 720.474 289.572C713.345 294.049 705.303 297.364 696.35 299.519C707.127 302.338 716.91 306.482 725.697 311.953C734.651 317.424 742.195 324.056 748.329 331.848C754.63 339.64 759.438 348.426 762.754 358.208C766.236 367.989 767.977 378.433 767.977 389.541ZM641.635 247.794C641.635 242.987 640.64 238.925 638.65 235.609C636.661 232.128 634.173 229.309 631.189 227.154C628.37 224.999 625.22 223.424 621.738 222.429C618.422 221.434 615.438 220.937 612.785 220.937C609.469 220.937 606.236 221.434 603.085 222.429C599.935 223.424 596.868 224.584 593.883 225.911L592.391 281.117C596.204 281.117 600.93 280.786 606.567 280.123C612.204 279.459 617.593 278.05 622.733 275.895C628.039 273.574 632.515 270.258 636.163 265.948C639.811 261.472 641.635 255.42 641.635 247.794ZM606.318 328.864C601.51 328.864 596.868 329.361 592.391 330.356L591.396 387.054C593.883 387.552 596.287 388.049 598.609 388.546C601.096 388.878 603.5 389.044 605.821 389.044C609.303 389.044 613.116 388.712 617.261 388.049C621.407 387.22 625.303 385.728 628.951 383.573C632.598 381.252 635.583 378.185 637.904 374.372C640.391 370.559 641.635 365.502 641.635 359.202C641.635 352.902 640.391 347.763 637.904 343.784C635.583 339.805 632.681 336.738 629.199 334.583C625.717 332.262 621.904 330.77 617.759 330.107C613.614 329.278 609.8 328.864 606.318 328.864Z" fill="white"/>
<path d="M1095.03 456.684L971.667 472.6L956.745 416.398H900.04L887.605 472.6L760.765 460.166L859.75 128.926L998.03 121.963L1095.03 456.684ZM947.792 340.303L928.89 253.763L910.486 340.303H947.792Z" fill="white"/>
<path d="M1408.89 352.239C1408.89 370.973 1408.64 389.541 1408.15 407.943C1407.81 426.18 1407.23 444.582 1406.41 463.15L1263.15 460.663C1268.12 431.319 1272.44 402.058 1276.08 372.88C1279.73 343.536 1281.56 313.943 1281.56 284.101C1281.56 281.946 1281.47 278.465 1281.31 273.657C1281.14 268.849 1280.81 263.461 1280.31 257.493C1279.81 251.359 1279.07 245.142 1278.07 238.842C1277.24 232.376 1276 226.491 1274.34 221.186C1272.85 215.881 1270.94 211.57 1268.62 208.254C1266.47 204.773 1263.81 203.032 1260.66 203.032C1255.03 203.032 1250.22 204.69 1246.24 208.006C1242.43 211.321 1239.19 215.632 1236.54 220.937C1234.05 226.076 1232.06 231.879 1230.57 238.345C1229.08 244.81 1227.92 251.276 1227.09 257.741C1226.43 264.207 1225.93 270.341 1225.6 276.144C1225.43 281.78 1225.35 286.422 1225.35 290.07C1224.52 319.414 1223.86 348.592 1223.36 377.605C1222.86 406.451 1222.2 435.629 1221.37 465.139L1094.53 470.61C1097.84 412.088 1100.99 353.897 1103.98 296.038C1107.13 238.179 1109.62 179.988 1111.44 121.466L1228.83 115.497L1227.83 155.286C1232.48 149.649 1237.45 144.344 1242.76 139.37C1248.23 134.397 1254.03 130.169 1260.17 126.688C1266.3 123.041 1272.77 120.222 1279.57 118.233C1286.53 116.078 1293.82 115 1301.45 115C1315.54 115 1327.9 117.321 1338.51 121.963C1349.12 126.605 1358.24 132.905 1365.87 140.863C1373.49 148.82 1379.88 158.27 1385.02 169.212C1390.16 179.988 1394.3 191.51 1397.45 203.778C1400.6 216.046 1403.01 228.895 1404.66 242.323C1406.32 255.586 1407.4 268.683 1407.9 281.615C1408.56 294.546 1408.89 307.063 1408.89 319.165C1408.89 331.267 1408.89 342.292 1408.89 352.239Z" fill="white"/>
<path d="M1714.3 280.62C1714.3 303.83 1711.32 324.636 1705.35 343.038C1699.38 361.44 1691.01 377.77 1680.23 392.028C1669.62 406.12 1656.94 418.139 1642.18 428.086C1627.42 438.033 1611.26 446.24 1593.68 452.705C1576.11 459.005 1557.37 463.647 1537.47 466.631C1517.74 469.616 1497.43 471.108 1476.54 471.108C1468.75 471.108 1461.12 470.942 1453.66 470.61C1446.2 470.113 1438.57 469.45 1430.78 468.621L1437.74 144.841C1455.98 139.039 1474.72 134.977 1493.95 132.656C1513.35 130.169 1532.58 128.926 1551.65 128.926C1575.36 128.926 1597.16 132.242 1617.06 138.873C1636.96 145.505 1654.12 155.286 1668.54 168.217C1682.97 180.983 1694.16 196.815 1702.12 215.715C1710.24 234.449 1714.3 256.084 1714.3 280.62ZM1545.18 376.112C1555.13 374.62 1564.17 371.636 1572.29 367.16C1580.58 362.518 1587.71 356.881 1593.68 350.25C1599.65 343.453 1604.21 335.827 1607.36 327.371C1610.68 318.751 1612.33 309.632 1612.33 300.017C1612.33 290.567 1611.34 281.78 1609.35 273.657C1607.36 265.368 1604.13 258.239 1599.65 252.271C1595.17 246.136 1589.29 241.329 1581.99 237.847C1574.7 234.2 1565.74 232.21 1555.13 231.879L1545.18 376.112Z" fill="white"/>
<path d="M2037.37 287.583C2037.37 302.669 2035.63 317.259 2032.15 331.35C2028.67 345.276 2023.61 358.373 2016.98 370.642C2010.51 382.91 2002.55 394.183 1993.1 404.462C1983.82 414.575 1973.29 423.278 1961.52 430.573C1949.91 437.868 1937.23 443.587 1923.46 447.732C1909.7 451.711 1895.11 453.7 1879.69 453.7C1864.77 453.7 1850.51 451.794 1836.92 447.981C1823.49 444.167 1810.88 438.862 1799.11 432.065C1787.34 425.102 1776.65 416.813 1767.03 407.197C1757.58 397.416 1749.45 386.64 1742.66 374.869C1736.02 362.932 1730.8 350.167 1726.99 336.573C1723.34 322.978 1721.52 308.803 1721.52 294.049C1721.52 279.625 1723.26 265.533 1726.74 251.773C1730.22 237.847 1735.19 224.75 1741.66 212.482C1748.29 200.214 1756.25 188.94 1765.54 178.662C1774.82 168.383 1785.18 159.513 1796.62 152.053C1808.23 144.593 1820.75 138.79 1834.18 134.646C1847.61 130.501 1861.79 128.429 1876.71 128.429C1900.75 128.429 1922.64 132.159 1942.37 139.619C1962.26 147.08 1979.18 157.773 1993.1 171.699C2007.2 185.459 2018.06 202.203 2025.68 221.932C2033.48 241.494 2037.37 263.378 2037.37 287.583ZM1926.95 294.049C1926.95 286.92 1925.87 280.04 1923.71 273.408C1921.72 266.611 1918.74 260.643 1914.76 255.503C1910.78 250.198 1905.81 245.971 1899.84 242.821C1894.03 239.505 1887.32 237.847 1879.69 237.847C1871.9 237.847 1864.94 239.256 1858.8 242.075C1852.67 244.893 1847.36 248.789 1842.88 253.763C1838.57 258.57 1835.26 264.29 1832.94 270.921C1830.61 277.387 1829.45 284.267 1829.45 291.562C1829.45 298.525 1830.45 305.488 1832.44 312.451C1834.43 319.414 1837.41 325.714 1841.39 331.35C1845.37 336.987 1850.26 341.546 1856.07 345.028C1862.03 348.509 1868.92 350.25 1876.71 350.25C1884.5 350.25 1891.46 348.758 1897.6 345.774C1903.9 342.624 1909.21 338.479 1913.52 333.34C1917.83 328.035 1921.14 321.983 1923.46 315.186C1925.79 308.389 1926.95 301.343 1926.95 294.049Z" fill="white"/>
<path d="M2360.44 352.239C2360.44 370.973 2360.19 389.541 2359.7 407.943C2359.36 426.18 2358.78 444.582 2357.95 463.15L2214.7 460.663C2219.67 431.319 2223.98 402.058 2227.63 372.88C2231.28 343.536 2233.1 313.943 2233.1 284.101C2233.1 281.946 2233.02 278.465 2232.86 273.657C2232.69 268.849 2232.36 263.461 2231.86 257.493C2231.36 251.359 2230.62 245.142 2229.62 238.842C2228.79 232.376 2227.55 226.491 2225.89 221.186C2224.4 215.881 2222.49 211.57 2220.17 208.254C2218.02 204.773 2215.36 203.032 2212.21 203.032C2206.58 203.032 2201.77 204.69 2197.79 208.006C2193.97 211.321 2190.74 215.632 2188.09 220.937C2185.6 226.076 2183.61 231.879 2182.12 238.345C2180.63 244.81 2179.47 251.276 2178.64 257.741C2177.97 264.207 2177.48 270.341 2177.14 276.144C2176.98 281.78 2176.9 286.422 2176.9 290.07C2176.07 319.414 2175.4 348.592 2174.91 377.605C2174.41 406.451 2173.75 435.629 2172.92 465.139L2046.08 470.61C2049.39 412.088 2052.54 353.897 2055.53 296.038C2058.68 238.179 2061.17 179.988 2062.99 121.466L2180.38 115.497L2179.38 155.286C2184.03 149.649 2189 144.344 2194.31 139.37C2199.78 134.397 2205.58 130.169 2211.72 126.688C2217.85 123.041 2224.32 120.222 2231.11 118.233C2238.08 116.078 2245.37 115 2253 115C2267.09 115 2279.45 117.321 2290.06 121.963C2300.67 126.605 2309.79 132.905 2317.42 140.863C2325.04 148.82 2331.43 158.27 2336.57 169.212C2341.71 179.988 2345.85 191.51 2349 203.778C2352.15 216.046 2354.56 228.895 2356.21 242.323C2357.87 255.586 2358.95 268.683 2359.45 281.615C2360.11 294.546 2360.44 307.063 2360.44 319.165C2360.44 331.267 2360.44 342.292 2360.44 352.239Z" fill="white"/>
</svg>
