<svg width="248" height="60" viewBox="0 0 248 60" fill="none" xmlns="http://www.w3.org/2000/svg">
    <rect width="248" height="60.1845" fill="url(#paint0_linear_15_13)"/>
    <path d="M46.5185 45.7216L34.2133 47.3092L32.7248 41.703H27.0683L25.8279 47.3092L13.1753 46.0689L23.0493 13.027L36.843 12.3324L46.5185 45.7216ZM31.8316 34.1123L29.9462 25.4797L28.1103 34.1123H31.8316Z"
          fill="white"/>
    <path d="M75.9172 39.0239C75.9172 40.3965 75.6608 41.5789 75.1481 42.5712C74.6519 43.5634 73.9821 44.4068 73.1386 45.1014C72.2951 45.796 71.3192 46.3665 70.2111 46.8131C69.1195 47.243 67.9783 47.5821 66.7875 47.8301C65.5966 48.0782 64.3975 48.2435 63.1902 48.3262C61.9993 48.4089 60.8829 48.4503 59.841 48.4503C58.8155 48.4503 57.7487 48.4089 56.6406 48.3262C55.549 48.2601 54.4574 48.1361 53.3658 47.9541C52.2742 47.7722 51.1992 47.5324 50.1407 47.2348C49.0821 46.9205 48.0815 46.5319 47.1388 46.0689L47.0891 14.1184C48.0154 13.7381 48.9994 13.3991 50.0414 13.1014C51.0834 12.7872 52.1419 12.5308 53.217 12.3324C54.3086 12.1174 55.3919 11.9603 56.4669 11.8611C57.542 11.7453 58.584 11.6874 59.5929 11.6874C60.7672 11.6874 61.9497 11.7618 63.1406 11.9107C64.3479 12.0595 65.5057 12.3076 66.6138 12.6549C67.7219 13.0022 68.7556 13.4569 69.7149 14.0192C70.6742 14.565 71.5094 15.243 72.2206 16.0533C72.9484 16.8637 73.5107 17.8063 73.9076 18.8812C74.3211 19.9562 74.5279 21.1965 74.5279 22.6022C74.5279 23.5283 74.3956 24.3965 74.1309 25.2068C73.8663 26.0172 73.4859 26.7448 72.9897 27.3898C72.4935 28.0347 71.8899 28.5887 71.1787 29.0518C70.4675 29.4983 69.6653 29.8291 68.7722 30.044C69.8472 30.3252 70.8231 30.7386 71.6996 31.2844C72.5928 31.8301 73.3453 32.4916 73.9573 33.2689C74.5858 34.0461 75.0654 34.9226 75.3962 35.8983C75.7435 36.874 75.9172 37.9159 75.9172 39.0239ZM63.3142 24.8843C63.3142 24.4048 63.215 23.9996 63.0165 23.6688C62.818 23.3216 62.5699 23.0404 62.2722 22.8254C61.9911 22.6104 61.6768 22.4533 61.3295 22.3541C60.9987 22.2549 60.701 22.2053 60.4364 22.2053C60.1056 22.2053 59.7831 22.2549 59.4688 22.3541C59.1546 22.4533 58.8486 22.5691 58.5509 22.7014L58.402 28.2084C58.7824 28.2084 59.2538 28.1753 59.8162 28.1092C60.3785 28.043 60.916 27.9024 61.4287 27.6875C61.958 27.4559 62.4046 27.1252 62.7684 26.6952C63.1323 26.2487 63.3142 25.6451 63.3142 24.8843ZM59.7913 32.9712C59.3117 32.9712 58.8486 33.0208 58.402 33.12L58.3028 38.7758C58.5509 38.8254 58.7907 38.8751 59.0223 38.9247C59.2704 38.9578 59.5102 38.9743 59.7417 38.9743C60.0891 38.9743 60.4695 38.9412 60.8829 38.8751C61.2964 38.7924 61.6851 38.6435 62.049 38.4285C62.4128 38.197 62.7105 37.8911 62.9421 37.5107C63.1902 37.1304 63.3142 36.626 63.3142 35.9975C63.3142 35.3691 63.1902 34.8565 62.9421 34.4596C62.7105 34.0627 62.4211 33.7567 62.0738 33.5417C61.7264 33.3102 61.346 33.1614 60.9326 33.0952C60.5191 33.0125 60.1387 32.9712 59.7913 32.9712Z"
          fill="white"/>
    <path d="M108.541 45.7216L96.2357 47.3092L94.7472 41.703H89.0907L87.8503 47.3092L75.1977 46.0689L85.0717 13.027L98.8655 12.3324L108.541 45.7216ZM93.854 34.1123L91.9686 25.4797L90.1327 34.1123H93.854Z"
          fill="white"/>
    <path d="M139.85 35.303C139.85 37.1717 139.825 39.0239 139.775 40.8596C139.742 42.6787 139.684 44.5143 139.602 46.3665L125.312 46.1185C125.808 43.1913 126.238 40.2725 126.602 37.3619C126.966 34.4347 127.148 31.4828 127.148 28.5061C127.148 28.2911 127.139 27.9438 127.123 27.4642C127.106 26.9846 127.073 26.4471 127.024 25.8518C126.974 25.2399 126.9 24.6197 126.8 23.9913C126.718 23.3464 126.594 22.7593 126.428 22.2301C126.279 21.7009 126.089 21.2709 125.858 20.9402C125.643 20.5929 125.378 20.4192 125.064 20.4192C124.501 20.4192 124.022 20.5846 123.625 20.9153C123.244 21.2461 122.922 21.6761 122.657 22.2053C122.409 22.7179 122.211 23.2967 122.062 23.9417C121.913 24.5867 121.797 25.2316 121.715 25.8766C121.648 26.5216 121.599 27.1334 121.566 27.7123C121.549 28.2745 121.541 28.7376 121.541 29.1014C121.458 32.0285 121.392 34.9391 121.342 37.8332C121.293 40.7107 121.227 43.6213 121.144 46.565L108.491 47.1107C108.822 41.273 109.136 35.4683 109.434 29.6968C109.748 23.9252 109.996 18.1205 110.178 12.2828L121.888 11.6874L121.789 15.6564C122.252 15.0942 122.748 14.565 123.277 14.0688C123.823 13.5727 124.402 13.151 125.014 12.8037C125.626 12.4399 126.271 12.1587 126.949 11.9603C127.644 11.7453 128.372 11.6378 129.132 11.6378C130.538 11.6378 131.77 11.8693 132.829 12.3324C133.887 12.7954 134.797 13.4239 135.558 14.2177C136.319 15.0115 136.955 15.9541 137.468 17.0456C137.981 18.1205 138.394 19.2699 138.709 20.4936C139.023 21.7174 139.263 22.9991 139.428 24.3386C139.594 25.6616 139.701 26.9681 139.751 28.258C139.817 29.5479 139.85 30.7965 139.85 32.0037C139.85 33.211 139.85 34.3107 139.85 35.303Z"
          fill="white"/>
    <path d="M170.315 28.1588C170.315 30.474 170.018 32.5495 169.422 34.3851C168.827 36.2208 167.992 37.8497 166.916 39.272C165.858 40.6776 164.593 41.8766 163.121 42.8689C161.649 43.8611 160.036 44.6797 158.283 45.3247C156.53 45.9531 154.661 46.4162 152.676 46.7138C150.708 47.0115 148.682 47.1603 146.598 47.1603C145.821 47.1603 145.06 47.1438 144.315 47.1107C143.571 47.0611 142.81 46.995 142.033 46.9123L142.728 14.6146C144.547 14.0358 146.416 13.6306 148.335 13.3991C150.27 13.151 152.188 13.027 154.09 13.027C156.455 13.027 158.63 13.3577 160.615 14.0192C162.6 14.6807 164.312 15.6564 165.75 16.9464C167.189 18.2197 168.306 19.7991 169.1 21.6843C169.91 23.5531 170.315 25.7112 170.315 28.1588ZM153.445 37.6844C154.438 37.5355 155.339 37.2379 156.149 36.7913C156.976 36.3283 157.688 35.766 158.283 35.1045C158.878 34.4265 159.333 33.6658 159.647 32.8223C159.978 31.9624 160.144 31.0528 160.144 30.0937C160.144 29.151 160.044 28.2745 159.846 27.4642C159.647 26.6373 159.325 25.9262 158.878 25.3309C158.432 24.719 157.845 24.2394 157.117 23.8921C156.389 23.5283 155.496 23.3298 154.438 23.2967L153.445 37.6844Z"
          fill="white"/>
    <path d="M202.542 28.8533C202.542 30.3583 202.368 31.8136 202.021 33.2192C201.674 34.6084 201.169 35.9149 200.508 37.1386C199.863 38.3624 199.069 39.4869 198.126 40.5123C197.2 41.5211 196.15 42.3893 194.975 43.1169C193.818 43.8446 192.552 44.4151 191.18 44.8286C189.807 45.2255 188.351 45.4239 186.813 45.4239C185.325 45.4239 183.902 45.2337 182.546 44.8534C181.206 44.473 179.949 43.9438 178.775 43.2658C177.601 42.5712 176.534 41.7443 175.575 40.7851C174.632 39.8094 173.822 38.7345 173.144 37.5603C172.482 36.3696 171.961 35.0962 171.581 33.7402C171.217 32.3841 171.035 30.9701 171.035 29.4983C171.035 28.0595 171.208 26.6539 171.556 25.2812C171.903 23.8921 172.399 22.5856 173.044 21.3619C173.706 20.1381 174.5 19.0135 175.426 17.9882C176.352 16.9629 177.386 16.0781 178.527 15.3339C179.685 14.5898 180.934 14.0109 182.273 13.5975C183.613 13.1841 185.027 12.9774 186.516 12.9774C188.914 12.9774 191.097 13.3494 193.065 14.0936C195.05 14.8378 196.737 15.9045 198.126 17.2936C199.532 18.6662 200.615 20.3365 201.376 22.3045C202.153 24.2559 202.542 26.4389 202.542 28.8533ZM191.527 29.4983C191.527 28.7872 191.419 28.1009 191.204 27.4394C191.006 26.7614 190.708 26.166 190.311 25.6533C189.914 25.1241 189.418 24.7024 188.823 24.3882C188.244 24.0575 187.574 23.8921 186.813 23.8921C186.036 23.8921 185.341 24.0327 184.729 24.3138C184.117 24.5949 183.588 24.9836 183.142 25.4797C182.712 25.9593 182.381 26.5298 182.149 27.1913C181.918 27.8363 181.802 28.5226 181.802 29.2502C181.802 29.9448 181.901 30.6394 182.1 31.334C182.298 32.0285 182.596 32.657 182.993 33.2192C183.39 33.7815 183.878 34.2363 184.456 34.5836C185.052 34.9309 185.738 35.1045 186.516 35.1045C187.293 35.1045 187.988 34.9557 188.6 34.658C189.228 34.3438 189.757 33.9304 190.187 33.4177C190.617 32.8885 190.948 32.2849 191.18 31.6068C191.411 30.9288 191.527 30.226 191.527 29.4983Z"
          fill="white"/>
    <path d="M234.769 35.303C234.769 37.1717 234.744 39.0239 234.695 40.8596C234.661 42.6787 234.604 44.5143 234.521 46.3665L220.231 46.1185C220.727 43.1913 221.157 40.2725 221.521 37.3619C221.885 34.4347 222.067 31.4828 222.067 28.5061C222.067 28.2911 222.059 27.9438 222.042 27.4642C222.025 26.9846 221.992 26.4471 221.943 25.8518C221.893 25.2399 221.819 24.6197 221.719 23.9913C221.637 23.3464 221.513 22.7593 221.347 22.2301C221.198 21.7009 221.008 21.2709 220.777 20.9402C220.562 20.5929 220.297 20.4192 219.983 20.4192C219.421 20.4192 218.941 20.5846 218.544 20.9153C218.164 21.2461 217.841 21.6761 217.576 22.2053C217.328 22.7179 217.13 23.2967 216.981 23.9417C216.832 24.5867 216.716 25.2316 216.634 25.8766C216.567 26.5216 216.518 27.1334 216.485 27.7123C216.468 28.2745 216.46 28.7376 216.46 29.1014C216.377 32.0285 216.311 34.9391 216.261 37.8332C216.212 40.7107 216.146 43.6213 216.063 46.565L203.41 47.1107C203.741 41.273 204.055 35.4683 204.353 29.6968C204.667 23.9252 204.916 18.1205 205.097 12.2828L216.807 11.6874L216.708 15.6564C217.171 15.0942 217.667 14.565 218.197 14.0688C218.742 13.5727 219.321 13.151 219.933 12.8037C220.545 12.4399 221.19 12.1587 221.868 11.9603C222.563 11.7453 223.291 11.6378 224.052 11.6378C225.457 11.6378 226.69 11.8693 227.748 12.3324C228.807 12.7954 229.716 13.4239 230.477 14.2177C231.238 15.0115 231.875 15.9541 232.387 17.0456C232.9 18.1205 233.314 19.2699 233.628 20.4936C233.942 21.7174 234.182 22.9991 234.347 24.3386C234.513 25.6616 234.62 26.9681 234.67 28.258C234.736 29.5479 234.769 30.7965 234.769 32.0037C234.769 33.211 234.769 34.3107 234.769 35.303Z"
          fill="white"/>
    <defs>
        <linearGradient id="paint0_linear_15_13" x1="0" y1="30.0923" x2="248" y2="30.0923"
                        gradientUnits="userSpaceOnUse">
            <stop stop-color="#7638FA"/>
            <stop offset="0.25" stop-color="#D300C5"/>
            <stop offset="0.5" stop-color="#FF0069"/>
            <stop offset="0.75" stop-color="#FF7A00"/>
            <stop offset="1" stop-color="#FFD600"/>
        </linearGradient>
    </defs>
</svg>